<svg xmlns="http://www.w3.org/2000/svg" width="20" height="20" viewBox="0 0 20 20">
  <g id="home_1_" data-name="home (1)" transform="translate(0 -0.16)">
    <path id="Path_13" data-name="Path 13" d="M194.474,319.841A2.474,2.474,0,0,0,192,322.315v4.948h4.947v-4.948A2.474,2.474,0,0,0,194.474,319.841Z" transform="translate(-184.474 -307.102)" fill="#fff"/>
    <g id="Group_7" data-name="Group 7" transform="translate(0 0.16)">
      <path id="Path_14" data-name="Path 14" d="M14.167,15.157v5H17.5a2.5,2.5,0,0,0,2.5-2.5V10.053a1.668,1.668,0,0,0-.469-1.161L12.449,1.231a3.332,3.332,0,0,0-4.71-.186q-.1.089-.185.186L.484,8.889A1.668,1.668,0,0,0,0,10.065v7.593a2.5,2.5,0,0,0,2.5,2.5H5.833v-5A4.216,4.216,0,0,1,9.9,10.973,4.219,4.219,0,0,1,14.167,15.157Z" transform="translate(0 -0.16)" fill="#fff"/>
      <path id="Path_15" data-name="Path 15" d="M194.474,319.841A2.474,2.474,0,0,0,192,322.315v4.948h4.947v-4.948A2.474,2.474,0,0,0,194.474,319.841Z" transform="translate(-184.474 -307.262)" fill="#fff"/>
    </g>
  </g>
</svg>
