<svg xmlns="http://www.w3.org/2000/svg" width="20" height="20" viewBox="0 0 20 20">
  <path id="megaphone_1_" data-name="megaphone (1)" d="M19.165,13.333a.833.833,0,0,1-.372-.087l-1.667-.833a.834.834,0,0,1,.745-1.492l1.667.833a.833.833,0,0,1-.373,1.579ZM17.871,5.75l1.667-.833a.834.834,0,0,0-.745-1.492l-1.667.833a.834.834,0,0,0,.745,1.492ZM20,8.333a.833.833,0,0,0-.833-.833H17.5a.833.833,0,0,0,0,1.667h1.667A.833.833,0,0,0,20,8.333Zm-5,7.5v-15a.833.833,0,1,0-1.667,0c0,2.457-2.152,3.333-4.166,3.333H3.333A3.333,3.333,0,0,0,0,7.5V9.167A3.333,3.333,0,0,0,3.333,12.5H9.166c2.014,0,4.166.876,4.166,3.333a.833.833,0,1,0,1.667,0ZM6.821,14.167H3.333a5,5,0,0,1-1.152-.139l2.083,4.652A2.226,2.226,0,0,0,6.3,20a2.052,2.052,0,0,0,1.868-2.893Z" fill="#838383"/>
</svg>
