<svg xmlns="http://www.w3.org/2000/svg" width="15" height="20" viewBox="0 0 15 20">
  <path id="notebook" d="M16.333,2.518V.833a.833.833,0,1,0-1.667,0V1.75a4.167,4.167,0,0,0-.833-.083H13V.833a.833.833,0,0,0-1.667,0v.833H9.667V.833A.833.833,0,1,0,8,.833v.833H7.167a4.167,4.167,0,0,0-.833.083V.833a.833.833,0,1,0-1.667,0V2.518A4.149,4.149,0,0,0,3,5.833v10A4.172,4.172,0,0,0,7.167,20h6.667A4.172,4.172,0,0,0,18,15.833v-10a4.149,4.149,0,0,0-1.667-3.315ZM10.5,14.167H7.167a.833.833,0,1,1,0-1.667H10.5a.833.833,0,0,1,0,1.667Zm3.333-3.333H7.167a.833.833,0,1,1,0-1.667h6.667a.833.833,0,0,1,0,1.667Zm0-3.333H7.167a.833.833,0,0,1,0-1.667h6.667a.833.833,0,0,1,0,1.667Z" transform="translate(-3)" fill="#838383"/>
</svg>
