<svg xmlns="http://www.w3.org/2000/svg" width="21.457" height="21.416" viewBox="0 0 21.457 21.416">
  <path id="paper-plane" d="M20.232.772a2.6,2.6,0,0,0-2.45-.7l-14,2.949a4.371,4.371,0,0,0-2.5,7.422l1.5,1.5a.875.875,0,0,1,.256.62v2.772a2.6,2.6,0,0,0,.263,1.125l-.007.006.023.023a2.625,2.625,0,0,0,1.192,1.187l.023.023.006-.007a2.6,2.6,0,0,0,1.125.263H8.439a.875.875,0,0,1,.619.256l1.5,1.5A4.343,4.343,0,0,0,13.641,21a4.418,4.418,0,0,0,1.4-.231,4.317,4.317,0,0,0,2.926-3.488L20.925,3.251A2.6,2.6,0,0,0,20.232.772ZM4.026,10.71l-1.5-1.5a2.573,2.573,0,0,1-.632-2.69A2.606,2.606,0,0,1,4.077,4.744L17.94,1.826,4.792,14.976V12.565A2.606,2.606,0,0,0,4.026,10.71Zm12.226,6.275a2.625,2.625,0,0,1-4.453,1.5l-1.505-1.505a2.606,2.606,0,0,0-1.854-.768H6.028L19.178,3.063Z" transform="translate(0.24 0.213)" fill="#1c1c1c" stroke="#fcfcfc" stroke-width="0.4"/>
</svg>
