<svg xmlns="http://www.w3.org/2000/svg" width="22.276" height="22.276" viewBox="0 0 22.276 22.276">
  <path id="users-alt" d="M11.138,14.851a3.713,3.713,0,1,1,3.713-3.713A3.713,3.713,0,0,1,11.138,14.851Zm0-5.569a1.856,1.856,0,1,0,1.856,1.856A1.856,1.856,0,0,0,11.138,9.282Zm5.569,12.066a5.569,5.569,0,0,0-11.138,0,.928.928,0,0,0,1.856,0,3.713,3.713,0,0,1,7.425,0,.928.928,0,1,0,1.856,0Zm0-13.922A3.713,3.713,0,1,1,20.42,3.713,3.713,3.713,0,0,1,16.707,7.425Zm0-5.569a1.856,1.856,0,1,0,1.856,1.856A1.856,1.856,0,0,0,16.707,1.856Zm5.569,12.066a5.575,5.575,0,0,0-5.569-5.569.928.928,0,0,0,0,1.856,3.713,3.713,0,0,1,3.713,3.713.928.928,0,1,0,1.856,0ZM5.569,7.425A3.713,3.713,0,1,1,9.282,3.713,3.713,3.713,0,0,1,5.569,7.425Zm0-5.569A1.856,1.856,0,1,0,7.425,3.713,1.856,1.856,0,0,0,5.569,1.856ZM1.856,13.922A3.713,3.713,0,0,1,5.569,10.21a.928.928,0,0,0,0-1.856A5.575,5.575,0,0,0,0,13.922a.928.928,0,0,0,1.856,0Z" fill="#1c1c1c"/>
</svg>
